TITLE ""
FILE "DISC1Track13.mp3" MP3
  TRACK 01 AUDIO
    TITLE "DISC1Track13_01"
    INDEX 01 00:00:00
  TRACK 02 AUDIO
    TITLE "DISC1Track13_02"
    INDEX 01 00:02:68
  TRACK 03 AUDIO
    TITLE "DISC1Track13_03"
    INDEX 01 00:03:20
  TRACK 04 AUDIO
    TITLE "DISC1Track13_04"
    INDEX 01 00:05:35
  TRACK 05 AUDIO
    TITLE "DISC1Track13_05"
    INDEX 01 00:08:12
  TRACK 06 AUDIO
    TITLE "DISC1Track13_06"
    INDEX 01 00:10:56
  TRACK 07 AUDIO
    TITLE "DISC1Track13_07"
    INDEX 01 00:11:06
  TRACK 08 AUDIO
    TITLE "DISC1Track13_08"
    INDEX 01 00:13:70
  TRACK 09 AUDIO
    TITLE "DISC1Track13_09"
    INDEX 01 00:16:58
  TRACK 10 AUDIO
    TITLE "DISC1Track13_10"
    INDEX 01 00:19:45
  TRACK 11 AUDIO
    TITLE "DISC1Track13_11"
    INDEX 01 00:19:70
  TRACK 12 AUDIO
    TITLE "DISC1Track13_12"
    INDEX 01 00:22:63
  TRACK 13 AUDIO
    TITLE "DISC1Track13_13"
    INDEX 01 00:25:67
  TRACK 14 AUDIO
    TITLE "DISC1Track13_14"
    INDEX 01 00:28:65
  TRACK 15 AUDIO
    TITLE "DISC1Track13_15"
    INDEX 01 00:29:20
  TRACK 16 AUDIO
    TITLE "DISC1Track13_16"
    INDEX 01 00:32:53
  TRACK 17 AUDIO
    TITLE "DISC1Track13_17"
    INDEX 01 00:35:65
  TRACK 18 AUDIO
    TITLE "DISC1Track13_18"
    INDEX 01 00:38:72
  TRACK 19 AUDIO
    TITLE "DISC1Track13_19"
    INDEX 01 00:39:28
  TRACK 20 AUDIO
    TITLE "DISC1Track13_20"
    INDEX 01 00:43:75
  TRACK 21 AUDIO
    TITLE "DISC1Track13_21"
    INDEX 01 00:47:57
  TRACK 22 AUDIO
    TITLE "DISC1Track13_22"
    INDEX 01 00:51:31
  TRACK 23 AUDIO
    TITLE "DISC1Track13_23"
    INDEX 01 00:51:61
  TRACK 24 AUDIO
    TITLE "DISC1Track13_24"
    INDEX 01 00:54:67
  TRACK 25 AUDIO
    TITLE "DISC1Track13_25"
    INDEX 01 00:57:46
  TRACK 26 AUDIO
    TITLE "DISC1Track13_26"
    INDEX 01 01:00:20
  TRACK 27 AUDIO
    TITLE "DISC1Track13_27"
    INDEX 01 01:00:46
  TRACK 28 AUDIO
    TITLE "DISC1Track13_28"
    INDEX 01 01:02:15
  TRACK 29 AUDIO
    TITLE "DISC1Track13_29"
    INDEX 01 01:04:48
  TRACK 30 AUDIO
    TITLE "DISC1Track13_30"
    INDEX 01 01:06:64
  TRACK 31 AUDIO
    TITLE "DISC1Track13_31"
    INDEX 01 01:07:18
  TRACK 32 AUDIO
    TITLE "DISC1Track13_32"
    INDEX 01 01:09:45
  TRACK 33 AUDIO
    TITLE "DISC1Track13_33"
    INDEX 01 01:12:25
  TRACK 34 AUDIO
    TITLE "DISC1Track13_34"
    INDEX 01 01:14:75
  TRACK 35 AUDIO
    TITLE "DISC1Track13_35"
    INDEX 01 01:15:26
  TRACK 36 AUDIO
    TITLE "DISC1Track13_36"
    INDEX 01 01:17:33
  TRACK 37 AUDIO
    TITLE "DISC1Track13_37"
    INDEX 01 01:19:51
  TRACK 38 AUDIO
    TITLE "DISC1Track13_38"
    INDEX 01 01:21:64
  TRACK 39 AUDIO
    TITLE "DISC1Track13_39"
    INDEX 01 01:22:18
  TRACK 40 AUDIO
    TITLE "DISC1Track13_40"
    INDEX 01 01:25:48
  TRACK 41 AUDIO
    TITLE "DISC1Track13_41"
    INDEX 01 01:29:10
  TRACK 42 AUDIO
    TITLE "DISC1Track13_42"
    INDEX 01 01:32:38
  TRACK 43 AUDIO
    TITLE "DISC1Track13_43"
    INDEX 01 01:32:71
  TRACK 44 AUDIO
    TITLE "DISC1Track13_44"
    INDEX 01 01:35:56
  TRACK 45 AUDIO
    TITLE "DISC1Track13_45"
    INDEX 01 01:38:11
  TRACK 46 AUDIO
    TITLE "DISC1Track13_46"
    INDEX 01 01:40:36
  TRACK 47 AUDIO
    TITLE "DISC1Track13_47"
    INDEX 01 01:40:59
  TRACK 48 AUDIO
    TITLE "DISC1Track13_48"
    INDEX 01 01:44:33
  TRACK 49 AUDIO
    TITLE "DISC1Track13_49"
    INDEX 01 01:47:32
  TRACK 50 AUDIO
    TITLE "DISC1Track13_50"
    INDEX 01 01:50:24
